<svg xmlns="http://www.w3.org/2000/svg" width="128" height="128" viewBox="0 0 128 128">
  <g id="icon-fish" transform="translate(-9136 -3355)">
    <g id="Group_1403" data-name="Group 1403" transform="translate(9136.404 3373)">
      <g id="fish" transform="translate(0 0)">
        <path id="Path_7783" data-name="Path 7783" d="M2468.881,1144.94c-19.932,0-37.372,15.779-47.054,29.282l-19.339-17.583c-2.682-2.681-6.692.142-6,4.176l6.289,30.206-6.289,30.207c-.689,4.034,3.322,6.881,6,4.224l19.339-17.631c9.7,13.5,27.1,29.282,47.054,29.282,30.421,0,55.121-36.851,55.121-46.082C2524,1181.814,2499.3,1144.94,2468.881,1144.94Zm-24.323,66.536a.591.591,0,0,1-.522.212c-1.28,0-4.01-2.111-6.525-6a25.831,25.831,0,0,1,0-28.95c2.515-3.891,5.245-6,6.525-6a.618.618,0,0,1,.522.214c.334.546-.331,2.017-1.306,4.247a32.338,32.338,0,0,0,0,32.034C2444.251,1209.459,2444.893,1210.93,2444.558,1211.476Zm19.53,2.943c1.4,3.25,2.35,5.386,1.828,6.145a.737.737,0,0,1-.687.308c-2.136,0-6.122-3.725-9.256-8.684a38.134,38.134,0,0,1,0-41.953c3.133-4.959,7.095-8.685,9.256-8.685a.834.834,0,0,1,.711.308c.5.76-.427,2.9-1.851,6.146a47.684,47.684,0,0,0,0,46.414Zm29.5-18.391a7.05,7.05,0,0,1-10.016,0,5.367,5.367,0,0,1-.876-1.044,2.958,2.958,0,0,1-.355-.594,4.456,4.456,0,0,1-.308-.712,1.946,1.946,0,0,1-.191-.475,4.1,4.1,0,0,1-.214-.759,7.215,7.215,0,0,1,0-2.847,4.122,4.122,0,0,1,.214-.76,1.947,1.947,0,0,1,.191-.473,4.4,4.4,0,0,1,.308-.712,2.923,2.923,0,0,1,.355-.594,5.378,5.378,0,0,1,.876-1.044,6.953,6.953,0,0,1,5.008-2.088,7.1,7.1,0,0,1,5.008,12.1Z" transform="translate(-2396.407 -1144.94)" fill="#fff"/>
      </g>
      <g id="Group_1023" data-name="Group 1023" transform="translate(34.432 11.359)" opacity="0.4">
        <path id="Path_7792" data-name="Path 7792" d="M2425.354,1203.681a.7.7,0,0,1-.615.25c-1.5,0-4.71-2.481-7.666-7.053a30.348,30.348,0,0,1,0-34.012c2.956-4.572,6.161-7.053,7.666-7.053a.732.732,0,0,1,.615.251c.39.641-.391,2.369-1.535,4.99a37.985,37.985,0,0,0,0,37.636C2424.992,1201.31,2425.744,1203.04,2425.354,1203.681Z" transform="translate(-2411.861 -1145.021)" fill="#fff"/>
        <path id="Path_7793" data-name="Path 7793" d="M2435.782,1214.056c1.646,3.819,2.759,6.328,2.146,7.221a.862.862,0,0,1-.808.362c-2.51,0-7.191-4.376-10.872-10.2a44.8,44.8,0,0,1,0-49.29c3.681-5.827,8.336-10.2,10.872-10.2a.979.979,0,0,1,.836.362c.585.892-.5,3.4-2.174,7.221a56.031,56.031,0,0,0,0,54.531Z" transform="translate(-2399.346 -1151.939)" fill="#fff"/>
      </g>
    </g>
    <rect id="Rectangle_381" data-name="Rectangle 381" width="128" height="128" transform="translate(9136 3355)" fill="none"/>
  </g>
</svg>
