<svg xmlns="http://www.w3.org/2000/svg" width="128" height="128" viewBox="0 0 128 128"><g transform="translate(-11852 1383)"><g transform="translate(11993.703 -3854.498)"><g transform="translate(-138.703 2522.482)"><path d="M130.013,258.426c0,6-4.609,9.584-12.333,9.584-8.322,0-13.882-4.311-20.674-4.311-6.734,0-12.278,4.311-20.674,4.311-7.722,0-12.333-3.584-12.333-9.584C64,245.105,83.357,224,97.006,224S130.013,245.105,130.013,258.426Z" transform="translate(-52.998 -190.994)" fill="#fff" opacity="0.4"/><path d="M81.631,54.227c-5.006-1.2-10.512,2.661-12.3,8.618S70.149,74.6,75.155,75.8s10.512-2.661,12.3-8.618S86.644,55.423,81.631,54.227Zm-75.239,0c-5.006,1.195-7.614,7-5.826,12.95s7.3,9.814,12.3,8.618,7.614-6.995,5.826-12.952-7.3-9.814-12.3-8.618ZM25.886,32.241c-5.319,1.4-7.98,8.585-5.945,16.049s8,12.377,13.316,10.98,7.98-8.585,5.939-16.049S31.2,30.842,25.886,32.241Zm36.252,0c-5.319-1.4-11.281,3.516-13.314,10.98s.626,14.65,5.945,16.049,11.281-3.516,13.316-10.98-.627-14.648-5.946-16.049Z" transform="translate(-0.002 -32.003)" fill="#fff"/></g><g transform="translate(-69.135 2471.498)"><path d="M330.565,18.218l2.546-6.108,6.108-2.546a.82.82,0,0,0,0-1.468L333.111,5.55,330.565-.557a.82.82,0,0,0-.734-.454.82.82,0,0,0-.734.454L326.55,5.55,320.443,8.1a.82.82,0,0,0,0,1.468l6.107,2.546,2.546,6.108a.82.82,0,0,0,1.468,0ZM329.1,32.246l-2.546,6.108L320.443,40.9a.82.82,0,0,0,0,1.468l6.107,2.546,2.546,6.108a.82.82,0,0,0,1.468,0l2.546-6.108,6.108-2.546a.82.82,0,0,0,0-1.468l-6.108-2.546-2.546-6.108a.82.82,0,0,0-1.468,0Z" transform="translate(-287.181 1.011)" fill="#fff" opacity="0.4"/><path d="M39.316,82.643a1.646,1.646,0,0,0-.906-1.469L26.87,75.393,21.1,63.833a1.705,1.705,0,0,0-2.934,0L12.4,75.393.859,81.174a1.64,1.64,0,0,0,0,2.939L12.4,89.893l5.769,11.56a1.64,1.64,0,0,0,2.934,0l5.769-11.56,11.54-5.778A1.647,1.647,0,0,0,39.316,82.643Z" transform="translate(0.053 -56.436)" fill="#fff"/></g></g><rect width="128" height="128" transform="translate(11852 -1383)" fill="none"/></g></svg>