<svg xmlns="http://www.w3.org/2000/svg" width="128" height="128" viewBox="0 0 128 128">
  <g id="icon-rabbit" transform="translate(-8971 -3355)">
    <g id="rabbit" transform="translate(8979 3355)">
      <path id="Path_7786" data-name="Path 7786" d="M47.985,207.769a44.48,44.48,0,0,1,1.42-11.185,11.981,11.981,0,1,0,.185,21.278,16.369,16.369,0,0,1-1.6-7.1Z" transform="translate(-32.007 -99.675)" fill="#fff" opacity="0.4"/>
      <path id="Path_7787" data-name="Path 7787" d="M191.212,121.71,167.869,84.369V67.93h1.839a14.137,14.137,0,0,0,8.212-25.644l-12.138-8.671c-.275-.135-.566-.19-.843-.307a46.869,46.869,0,0,0,5.122-12.39c2.826-10.543,2.266-19.861-1.248-20.8s-8.654,6.849-11.482,17.4a55.636,55.636,0,0,0-1.443,7.288,56.114,56.114,0,0,0-1.436-7.288C151.623,6.963,146.484-.827,142.969.114s-4.073,10.259-1.248,20.8c1.732,6.465,4.333,11.866,6.9,14.881a13.1,13.1,0,0,0-4.493,7.865,15.907,15.907,0,0,0-.219,2.553v17.5l-3.492,0a44.429,44.429,0,0,0-44.429,44.43v3a16.531,16.531,0,0,0,16.478,16.689h35.219a3.953,3.953,0,0,0,3.994-3.769v-3.769a7.8,7.8,0,0,0-7.987-7.763h-5.641l18.56-15.014,18.194,29.1a8.039,8.039,0,0,0,3.632,1.21h9.423a4.185,4.185,0,0,0,3.981-4.218A6.52,6.52,0,0,0,191.212,121.71ZM163.88,51.946a3.953,3.953,0,0,1-3.994-3.769,3.808,3.808,0,0,1,3.994-3.769,3.775,3.775,0,1,1,0,7.538Z" transform="translate(-80.015 -0.037)" fill="#fff"/>
    </g>
    <rect id="Rectangle_382" data-name="Rectangle 382" width="128" height="128" transform="translate(8971 3355)" fill="none"/>
  </g>
</svg>
